:FULLY-SPECIFIED
:FORCE-ALL-JOINTS-BE-3DOF
:DEGREES
162
root 8.24629 16.5753 -14.1584 8.10941 9.7811 -0.625181
lfemur -4.2713 8.02755 -13.8689
ltibia 52.5921 0 0
lfoot 3.42979 12.6714 0
ltoes -11.5931 0 0
rfemur -30.2365 1.23281 23.3019
rtibia 31.7093 0 0
rfoot -12.1449 0.0700224 0
rtoes -14.6407 0 0
lowerback -5.08145 -2.17746 -0.804948
upperback -1.98681 -2.90542 3.57806
thorax 1.02645 -1.4433 3.96442
lowerneck -18.7589 -6.97726 -15.0564
upperneck 14.8698 -8.39205 14.9249
head 9.0667 -3.37751 6.5023
lclavicle 3.20706e-14 -8.00292e-15 0
lhumerus -43.8533 -10.1813 95.7886
lradius 23.965 0 0
lwrist 0.00454817 0 0
lhand -0.590431 -17.787 0
lfingers 7.12502 0 0
lthumb 25.0246 10.593 0
rclavicle 3.20706e-14 -8.00292e-15 0
rhumerus -45.4291 8.19496 -81.511
rradius 32.7674 0 0
rwrist -17.9646 0 0
rhand -28.1723 -28.696 0
rfingers 7.12502 0 0
rthumb -1.55232 -58.6698 0
163
root 8.22926 16.6107 -14.0339 8.16814 9.6865 -0.720423
lfemur -5.87019 8.07046 -14.0811
ltibia 54.2525 0 0
lfoot 2.51013 13.1915 0
ltoes -10.5354 0 0
rfemur -29.4704 1.23328 23.5451
rtibia 31.0438 0 0
rfoot -12.4074 0.262309 0
rtoes -14.946 0 0
lowerback -5.02286 -2.03316 -0.732397
upperback -1.99019 -2.71539 3.58917
thorax 0.974717 -1.34756 3.94971
lowerneck -18.5996 -7.02721 -15.1065
upperneck 14.6736 -8.47255 15.0358
head 8.99298 -3.41434 6.53462
lclavicle 3.60297e-14 -7.95139e-15 0
lhumerus -44.4565 -11.1407 96.4025
lradius 24.8871 0 0
lwrist 1.35588 0 0
lhand -0.454373 -17.8336 0
lfingers 7.12502 0 0
lthumb 25.1551 10.529 0
rclavicle 3.60297e-14 -7.95139e-15 0
rhumerus -45.2086 8.65175 -81.5253
rradius 33.2742 0 0
rwrist -18.1265 0 0
rhand -28.0664 -28.7822 0
rfingers 7.12502 0 0
rthumb -1.45006 -58.757 0
164
root 8.21989 16.6332 -13.912 8.17666 9.54917 -0.859943
lfemur -7.38197 8.13896 -14.2486
ltibia 55.7095 0 0
lfoot 1.63936 13.2854 0
ltoes -10.5165 0 0
rfemur -28.6614 1.29566 23.8233
rtibia 30.3978 0 0
rfoot -12.6639 0.440914 0
rtoes -14.9692 0 0
lowerback -4.96734 -1.87227 -0.603008
upperback -1.94106 -2.50762 3.59484
thorax 0.975414 -1.24389 3.89729
lowerneck -18.557 -7.08418 -15.0913
upperneck 14.5388 -8.56093 15.1009
head 8.95688 -3.45046 6.53828
lclavicle 3.48607e-14 -9.58768e-15 0
lhumerus -44.9255 -11.9489 96.8636
lradius 25.7207 0 0
lwrist 2.61432 0 0
lhand -0.572672 -18.04 0
lfingers 7.12502 0 0
lthumb 25.0419 10.3408 0
rclavicle 3.48607e-14 -9.58768e-15 0
rhumerus -44.9479 9.11897 -81.55
rradius 33.8282 0 0
rwrist -18.3829 0 0
rhand -28.1617 -28.5174 0
rfingers 7.12502 0 0
rthumb -1.54213 -58.4913 0
165
root 8.21052 16.6556 -13.79 8.14306 9.37088 -1.02726
lfemur -8.80728 8.22384 -14.4017
ltibia 56.9517 0 0
lfoot 0.755118 13.0205 0
ltoes -11.25 0 0
rfemur -27.8077 1.40377 24.1205
rtibia 29.7469 0 0
rfoot -12.9083 0.610718 0
rtoes -14.796 0 0
lowerback -4.91873 -1.69652 -0.433489
upperback -1.84297 -2.28322 3.59171
thorax 1.02767 -1.13285 3.81293
lowerneck -18.6184 -7.14547 -15.0128
upperneck 14.452 -8.65413 15.1249
head 8.95152 -3.48465 6.51548
lclavicle 3.01306e-14 -1.24277e-14 0
lhumerus -45.2965 -12.6487 97.2144
lradius 26.5207 0 0
lwrist 3.82527 0 0
lhand -0.848299 -18.3519 0
lfingers 7.12502 0 0
lthumb 24.7782 10.0711 0
rclavicle 3.01306e-14 -1.24277e-14 0
rhumerus -44.6439 9.60982 -81.5854
rradius 34.4285 0 0
rwrist -18.6887 0 0
rhand -28.3946 -27.9522 0
rfingers 7.12502 0 0
rthumb -1.76706 -57.9239 0
166
root 8.20115 16.6781 -13.6681 8.08403 9.16522 -1.2063
lfemur -10.175 8.31455 -14.5537
ltibia 58.0137 0 0
lfoot -0.130128 12.5243 0
ltoes -12.3288 0 0
rfemur -26.9425 1.54201 24.4227
rtibia 29.1212 0 0
rfoot -13.1514 0.771494 0
rtoes -14.5194 0 0
lowerback -4.87251 -1.51079 -0.244533
upperback -1.72449 -2.04685 3.58249
thorax 1.10082 -1.01624 3.71113
lowerneck -18.7109 -7.20578 -14.9075
upperneck 14.3913 -8.74752 15.1289
head 8.95856 -3.51805 6.48124
lclavicle 2.32904e-14 -1.59525e-14 0
lhumerus -45.6078 -13.2342 97.4752
lradius 27.2833 0 0
lwrist 4.99163 0 0
lhand -1.28249 -18.765 0
lfingers 7.12502 0 0
lthumb 24.3625 9.71996 0
rclavicle 2.32904e-14 -1.59525e-14 0
rhumerus -44.3254 10.0988 -81.6175
rradius 35.0546 0 0
rwrist -19.0198 0 0
rhand -28.7149 -27.2067 0
rfingers 7.12502 0 0
rthumb -2.07639 -57.1754 0
167
root 8.19178 16.7006 -13.5462 8.01625 8.94576 -1.38102
lfemur -11.5139 8.40054 -14.7177
ltibia 58.9304 0 0
lfoot -1.00389 11.9243 0
ltoes -13.3456 0 0
rfemur -26.0989 1.6948 24.716
rtibia 28.5505 0 0
rfoot -13.4042 0.923013 0
rtoes -14.2322 0 0
lowerback -4.82418 -1.31998 -0.0568326
upperback -1.61421 -1.80311 3.56993
thorax 1.16424 -0.895881 3.60639
lowerneck -18.7617 -7.25984 -14.8119
upperneck 14.3348 -8.83644 15.1339
head 8.95967 -3.55182 6.45055
lclavicle 1.57914e-14 -1.96428e-14 0
lhumerus -45.8978 -13.6994 97.6664
lradius 28.0048 0 0
lwrist 6.11629 0 0
lhand -1.87647 -19.2749 0
lfingers 7.12502 0 0
lthumb 23.7931 9.2875 0
rclavicle 1.57914e-14 -1.96428e-14 0
rhumerus -44.0214 10.5606 -81.6323
rradius 35.6858 0 0
rwrist -19.3522 0 0
rhand -29.0724 -26.4008 0
rfingers 7.12502 0 0
rthumb -2.42163 -56.3659 0
168
root 8.18241 16.723 -13.4242 7.95643 8.72609 -1.53535
lfemur -12.8529 8.47125 -14.907
ltibia 59.7364 0 0
lfoot -1.85368 11.3478 0
ltoes -13.8934 0 0
rfemur -25.3099 1.84654 24.9865
rtibia 28.065 0 0
rfoot -13.6776 1.06505 0
rtoes -14.0271 0 0
lowerback -4.76924 -1.12897 0.108919
upperback -1.54069 -1.55664 3.55674
thorax 1.18726 -0.77357 3.5132
lowerneck -18.6979 -7.30234 -14.7627
upperneck 14.2605 -8.91626 15.1612
head 8.93652 -3.5871 6.43843
lclavicle 9.08479e-15 -2.29798e-14 0
lhumerus -46.2047 -14.0383 97.8082
lradius 28.6816 0 0
lwrist 7.20214 0 0
lhand -2.63148 -19.8774 0
lfingers 7.12502 0 0
lthumb 23.0685 8.77373 0
rclavicle 9.08479e-15 -2.29798e-14 0
rhumerus -43.7607 10.9697 -81.6156
rradius 36.3015 0 0
rwrist -19.6618 0 0
rhand -29.4169 -25.6545 0
rfingers 7.12502 0 0
rthumb -2.75431 -55.616 0
